<?xml version="1.0" encoding="utf-8"?>
<!-- Generator: Adobe Illustrator 25.0.0, SVG Export Plug-In . SVG Version: 6.00 Build 0)  -->
<svg version="1.1" id="Layer_1" xmlns="http://www.w3.org/2000/svg" xmlns:xlink="http://www.w3.org/1999/xlink" x="0px" y="0px"
	 viewBox="0 0 406 306" style="enable-background:new 0 0 406 306;" xml:space="preserve">
<style type="text/css">
	.st0{opacity:0.45;fill:#E6E6E6;enable-background:new    ;}
	.st1{fill:#44A06F;}
	.st2{fill:#F2F2F2;}
	.st3{fill:#E6E6E6;}
	.st4{fill:#24285B;}
	.st5{fill:#FFD200;}
	.st6{opacity:0.17;fill:#666666;enable-background:new    ;}
	.st7{opacity:8.000000e-02;enable-background:new    ;}
	.st8{opacity:0.17;fill:#FFFFFF;enable-background:new    ;}
	.st9{fill:#F4A28C;}
	.st10{opacity:0.31;fill:#CE8172;enable-background:new    ;}
	.st11{opacity:0.36;fill:#FFFFFF;enable-background:new    ;}
	.st12{fill:#68E1FD;}
	.st13{opacity:9.000000e-02;enable-background:new    ;}
	.st14{opacity:0.43;fill:#FFFFFF;enable-background:new    ;}
	.st15{opacity:0.49;fill:#FFFFFF;enable-background:new    ;}
	.st16{fill:#FFFFFF;}
	.st17{fill:#C9C9C9;}
	.st18{opacity:0.58;fill:#44A06F;enable-background:new    ;}
	.st19{opacity:0.73;fill:#44A06F;enable-background:new    ;}
</style>
<ellipse class="st0" cx="202.5" cy="258.1" rx="136.1" ry="10"/>
<path class="st1" d="M209.4,44.6L208.1,73c-3.8,7.1-4.9,8.3-6.2,8.5v8.5c3.3,0.8,6.3,1,8,0c6.1-3.7,10.3-22.2,10.3-22.2L209.4,44.6z
	"/>
<rect x="93.1" y="75.9" transform="matrix(1 -2.443458e-03 2.443458e-03 1 -0.3838 0.5017)" class="st2" width="224" height="162.8"/>
<rect x="92.9" y="75.9" class="st3" width="224.1" height="32.1"/>
<circle class="st4" cx="113" cy="92.4" r="4.1"/>
<circle class="st1" cx="125.1" cy="92.4" r="4.1"/>
<circle class="st5" cx="136.4" cy="92.4" r="4.1"/>
<rect x="195.3" y="185.2" class="st3" width="96" height="6"/>
<rect x="195.3" y="201" class="st3" width="96" height="6"/>
<rect x="195.3" y="216.9" class="st3" width="66.7" height="6"/>
<rect x="195.3" y="119.3" class="st3" width="93.6" height="56"/>
<rect x="113.2" y="118.8" class="st6" width="71.4" height="20.1"/>
<rect x="113.2" y="147.3" class="st3" width="71.4" height="20.1"/>
<circle class="st6" cx="125.6" cy="157.5" r="7.2"/>
<rect x="138.3" y="153" class="st6" width="28.8" height="3.2"/>
<rect x="138.3" y="159.3" class="st6" width="18" height="3.2"/>
<rect x="113.2" y="175.8" class="st3" width="71.4" height="20.1"/>
<circle class="st6" cx="125.6" cy="186" r="7.2"/>
<rect x="138.3" y="181.5" class="st6" width="28.8" height="3.2"/>
<rect x="138.3" y="187.9" class="st6" width="18" height="3.2"/>
<rect x="113.2" y="204.4" class="st3" width="71.4" height="20.1"/>
<circle class="st6" cx="125.6" cy="214.5" r="7.2"/>
<rect x="138.3" y="210" class="st6" width="28.8" height="3.2"/>
<rect x="138.3" y="216.4" class="st6" width="18" height="3.2"/>
<path class="st7" d="M117,238.9c0.3,0-7.9-44.9-5.2-51s9.3-12.2,9.1-17.1c-0.2-5,19.2-19.6,23.3-31.8l3.8,5.9l39.1-33
	c0,0,6.7-1,8.8-5.8c2.2-4.8,22.5-30.2,22.5-30.2h-10.9l-12.3,16l-8.3-3.5l-44.4,33.5l-2.5,9.8c0,0-31.8,22.8-42.3,34.9
	s3.5,72.3,3.5,72.3L117,238.9z"/>
<rect x="135.8" y="98.8" transform="matrix(0.7701 -0.638 0.638 0.7701 -30.4885 131.2986)" class="st4" width="62.2" height="18.3"/>
<circle class="st5" cx="151.7" cy="120.6" r="6.6"/>
<rect x="155.9" y="101.4" transform="matrix(0.7701 -0.638 0.638 0.7701 -26.7427 131.4809)" class="st8" width="26.2" height="2.9"/>
<rect x="160.8" y="109" transform="matrix(0.7701 -0.638 0.638 0.7701 -31.6001 133.1846)" class="st8" width="16.4" height="2.9"/>
<path class="st9" d="M81.3,202.9l-6.6,21.2c-1.8,5.8-5.9,10.6-11.4,13.2l-9.7,4.6l0.4,2.9l14.6-3.1c6.9-2,12.7-6.9,15.8-13.4
	L94.5,207L81.3,202.9z"/>
<polygon class="st9" points="103.2,208.9 106.3,254.2 103.4,255.3 91.9,212.8 "/>
<path class="st1" d="M106.9,255c0,0,0.7,2.7,2.7,3.5c2,0.8,1,3.8-2,2c-0.9-0.5-1.8-1.2-2.7-1.9c-0.8-0.6-1.7-1-2.7-1.2
	c-0.4-0.1-0.7-0.4-0.7-0.8c-0.4-1.5,3-2.9,3-2.9L106.9,255z"/>
<path class="st1" d="M53.9,244.7c0,0-2,1.6-2,3.6c0,2.1-2.8,2.3-2.5-1c0.1-1,0.3-2,0.6-3c0.2-0.9,0.2-1.9-0.1-2.8
	c-0.1-0.4,0.1-0.7,0.4-0.9c1.1-0.9,3.6,1.4,3.6,1.4V244.7z"/>
<polygon class="st9" points="85.8,143.1 86.9,147.4 83.4,149.3 82.8,141.8 "/>
<path class="st9" d="M81.9,137.6c0.7-1.3,2.3-1.8,3.6-1.1c0.3,0.2,0.6,0.4,0.8,0.7c1.3,1.6,2.8,4.2,0.8,5.4
	c-3.2,1.8-5.6-2.2-5.6-2.2C81.4,139.5,81.5,138.5,81.9,137.6z"/>
<path class="st9" d="M67.4,156.8c0,0-15.2,23.8-12.2,27.3c9.7,11.2,31.2-13.9,31.2-13.9L67.4,156.8z"/>
<path class="st1" d="M101.9,153.2c-9-6.5-21.1-6.8-30.2-0.5c-4,2.7-7.1,6.8-5.7,12.6c3.3,13.8,13.9,22.8,14.2,35l25-1.7V183
	c0-3,1.2-5.8,3.4-7.9c2.2-2,4.3-5.3,2.9-9.8C110.1,161.4,106.7,156.7,101.9,153.2z"/>
<path class="st9" d="M83.9,140.4c0,0-0.7-0.7-1.1,0.2c-0.4,0.9,0.9,1.4,1.3,1C84.5,141.2,83.9,140.4,83.9,140.4z"/>
<path class="st7" d="M89.5,159.7c0,0-5.4,10.3,0.9,20.4c6.3,10.1-5.6,19.9-5.6,19.9l20.4-1.4v-8.9L89.5,159.7z"/>
<path class="st4" d="M79.1,153.5c0.5-1.9,2.7-5.3-0.4-11.4c-0.9-2-0.9-4.4,0.1-6.4c3-5,7.8-3.3,7.2-0.5s-1,4.2-1,4.2
	s9.1,6.5,7.7,11.3C91.5,154.9,77.1,161.3,79.1,153.5z"/>
<polygon class="st4" points="79,193.9 105.1,193.9 109.3,230 70.6,228.2 "/>
<path class="st9" d="M87.6,166c-1.6-3.7,0-8,3.7-9.7c0,0,0.1,0,0.1,0c1.8-0.7,3.6-1.3,5.5-1.8c11.1-2.8,30.4-10.6,41.7-25.4
	c0,0,3.3-5.7,7.9-4.2c4.6,1.5,1.4,6.9-3.2,5.5c0,0-13.8,35.3-45.5,41.1C93.5,172.2,89.3,170,87.6,166L87.6,166z"/>
<polygon class="st9" points="198.1,35.5 210.8,40.6 210.6,49.9 199.6,40.9 "/>
<path class="st10" d="M201.3,42.4c0.3-0.9,0.3-1.9,0-2.8c1.5,1.2,2.5,3,2.8,5L201.3,42.4z"/>
<path class="st9" d="M194.1,40.2c1.7,1.6,3.5,3,5.6,4.1c1,0.5,2.2,0.1,2.7-0.9c0,0,0-0.1,0-0.1c0.8-1.6,0.7-3.5-0.4-5l-2-3.2
	c-1-1.2-2.6-1.7-4.1-1.2C193,34.5,192.2,38.5,194.1,40.2z"/>
<path class="st9" d="M196.1,41.9l0.5,1.9c0.1,0.4,0.5,0.6,0.8,0.5c0.1,0,0.2-0.1,0.3-0.1l1.2-1L196.1,41.9z"/>
<path class="st5" d="M203.5,37.3l-3.9-4.1c0,0,1.2-3-1-3.2c-2.2-0.3-1.8,1.5-3.8,0.3c-2-1.2-3.5,0.2-3,2c0.4,1.9-0.8,0.3-1.9,1.6
	c-1.1,1.3-0.7,2.1,0.4,2.8c1.1,0.7-1.4,2-0.3,3.5c1,1.4,2.3,2.3,4.8-1.1S198.4,40,203.5,37.3z"/>
<path class="st9" d="M199.6,38.9c0,0-1.2-1-0.4-1.9s2.6,0.6,1.8,2L199.6,38.9z"/>
<path class="st7" d="M243.8,78.2c0,0-5.3,13.9,0.7,20.9c6.1,7,19.6,13.7,19.6,13.7s1.7,8.1,6,0.7l-0.8-4l-12.7-9.7l-8.1-10.3
	l5.2-11.2L243.8,78.2z"/>
<path class="st1" d="M261.2,60.9l-7.4,9.5l0,0l-5,6.5c-2.9,0.4-5.8,0.6-8.7,0.5c-8.6-0.3-21.3-3-26.8-15.3
	c-1.6-3.8-2.5-7.9-2.7-12.1l0.1-9.3c0,0,13.9-10.1,26.4-1.7S261.2,60.9,261.2,60.9z"/>
<path class="st4" d="M261.2,60.9c0,0,13.9,9.3,6.4,15.7c-3.8,3.4-7.2,7.1-10.3,11.2c-1.6,2.1-1.4,5,0.4,6.9l10.3,10.5l-1.8,4.8
	l-15.2-9.7c-4.9-3.1-7.1-9.2-5.2-14.8l3-8.6L261.2,60.9z"/>
<path class="st7" d="M253.8,70.4l-5,6.5c0,0-3.6,0.2-8.7,0.5c-8.6-0.3-21.3-3-26.8-15.3c4.5-6.1,10.3-11.8,13.1-12.5
	c0,0,5.2,14.6,12.9,17C246.9,68.9,253.5,70.4,253.8,70.4L253.8,70.4z"/>
<path class="st1" d="M226.9,52.1c1-8.5-10-12.8-15.3-6.1c-1.6,2-2.8,4.3-3.5,6.7c-2.7,9.1-19.5,46.3-19.5,46.3l5.7,2.8
	c0,0,21.4-26.8,29.7-41.5C225.5,57.9,226.5,55,226.9,52.1z"/>
<path class="st11" d="M226.9,52.1c1-8.5-10-12.8-15.3-6.1c-1.6,2-2.8,4.3-3.5,6.7c-2.7,9.1-19.5,46.3-19.5,46.3l5.7,2.8
	c0,0,21.4-26.8,29.7-41.5C225.5,57.9,226.5,55,226.9,52.1z"/>
<path class="st9" d="M189.4,99.6c0,0-6.3,3.6-2.8,5.9c3.5,2.3,7.5-3.6,7.5-3.6L189.4,99.6z"/>
<path class="st1" d="M266.7,108.8c0,0,2.9,3,1.9,5c0,0,2,2.2,3.6-0.7c1.6-2.8-1.2-6.1-1.2-6.1l-3.3-1.1L266.7,108.8z"/>
<path class="st7" d="M293.1,210.2c-2,5.3-3.9,10.6-5.5,16c-0.3,1.1-1.7,7.7-2.9,12.1h13.5c0.9-10.2,4.6-20,10.6-28.4
	c0.1,9.8,0.5,20.3,6,28.4h6.2c1.3-1.5,2-3.4,2.2-5.3c0.1-2.7-0.2-5.4-0.9-8c-1.7-8.1-2.5-16.3-2.6-24.6c0-10.4,1.2-20.8,0.3-31.1
	c-0.5-6.1-2-12.7-6.7-16.7c-0.2-0.2-0.4-0.3-0.6-0.5c0.5-3.7,0.7-7.3,0.9-11l0.6-10.7c0.2-3.6-1.8-9.5-6-5.5
	c-3.4,3.3-2.2,7.1-3,11.1c-1.3,6.2-8.9,5.4-13.8,5.2c-15.2-0.7-30.6-0.3-45.9-0.3h-35.9v66.5h84.7
	C293.8,208.3,293.4,209.2,293.1,210.2z"/>
<path class="st1" d="M289.5,252c0,0-2.2,2.2-4.7,1.2c-2.4-1-4.2,1-2.4,2.8c1.8,1.8,8.5,1.8,8.5,1.8l2-4.6L289.5,252z"/>
<path class="st1" d="M327.2,251c0,0,1.1,3-0.7,5c-1.8,1.9-0.7,4.5,1.5,3.4c2.2-1.1,4.8-7.7,4.8-7.7l-3.3-3.7L327.2,251z"/>
<path class="st4" d="M333.2,194.3c0,0,2.4,9.8-1.7,14.7c-4.1,4.8-10.4,27.8,0,39.3l-4.1,4.1c0,0-18-9.7-12.9-44.6l-12.9-13.4
	L333.2,194.3z"/>
<path class="st4" d="M301.6,194.3l-13.2,58l6.6,1c0,0,13.2-39.8,21.9-47.9L301.6,194.3z"/>
<path class="st12" d="M298.5,143.3c0,0-13.8,5.9-11.7,27.4l13.5-1.1L298.5,143.3z"/>
<path class="st11" d="M298.5,143.3c0,0-13.8,5.9-11.7,27.4l13.5-1.1L298.5,143.3z"/>
<polygon class="st9" points="317.9,127.2 317.3,141.2 309.7,140.4 313.1,130.5 "/>
<path class="st10" d="M312.3,132.7c1-0.1,1.9-0.4,2.7-1c-0.7,1.9-2.1,3.5-3.9,4.4L312.3,132.7z"/>
<path class="st1" d="M316.7,138.4l-4.5,0.9c0,0-20.5,2.2-21.4,13.8s10.8,41.2,10.8,41.2h31.1C332.7,194.3,357.6,135.3,316.7,138.4z"
	/>
<path class="st9" d="M310.3,125.2c-0.5,2.3-0.7,4.7-0.6,7.1c0.1,1.2,1.2,2,2.4,1.9c1.9-0.1,3.5-1.3,4.2-3l1.8-3.5
	c0.6-1.5,0.1-3.2-1.1-4.3C314.7,121.3,310.7,122.6,310.3,125.2z"/>
<path class="st13" d="M325.8,143.8c0,0-10.6,6.2-8.1,20.2c2.5,14,6.6,18.8-2.2,16.9c-8.8-1.9-12.4-6.4-12.4-6.4s-6.3,5.2,0,9.1
	c6.3,3.9,14.9,3.9,16.2,10.8h13.4c0,0,1.1-3,2.5-6.9C336.6,183.7,325.8,143.8,325.8,143.8z"/>
<path class="st4" d="M311.3,125.5c1.3,0.2,2.6,0.3,3.9,0.2c-0.9,1.1-1.1,2.6-0.5,3.9c0.6,1.3,2,1.9,3.3,1.6l0.7-5.4
	c0.3-1.6-0.4-3.2-1.7-4.1c-0.5-0.4-1.1-0.8-1.7-1.1c-1.7-0.9-3.7-0.9-5.3,0.2c-1.2,1-1.4,2.9-0.4,4.1
	C310.1,125.2,310.7,125.4,311.3,125.5z"/>
<path class="st9" d="M314.3,129.4c0,0,0.3-1.6,1.5-1.3c1.2,0.3,0.8,2.6-0.9,2.6L314.3,129.4z"/>
<rect x="215.5" y="134.4" class="st5" width="90.3" height="66.1"/>
<rect x="222.9" y="140.6" class="st14" width="75.4" height="53.8"/>
<polygon class="st15" points="223.8,194.4 244.3,156.4 261.7,185.8 277.4,167.5 298.3,194.4 "/>
<ellipse transform="matrix(0.1602 -0.9871 0.9871 0.1602 65.3855 392.1286)" class="st16" cx="263.1" cy="157.6" rx="6" ry="6"/>
<path class="st9" d="M342.3,168.5c0,0,1.8,18-7.1,19c-6.7,0.8-17.3-3-23.9-4.9c-2.8-0.8-4.2-1.2-6.4-3.2c-2.6-2.4-6.2-4.1-3.4-6.3
	c5-4.1,8.5,2.9,8.5,2.9c4.2,1.2,8.5,1.9,12.8,2.1c2.9,0.1,5.3-2.2,5.4-5.1c0-0.5,0-1-0.2-1.5l-1.6-6.2
	C326.4,165.4,338.1,154.4,342.3,168.5z"/>
<path class="st9" d="M309.8,127.8l-1.4,1.5c-0.3,0.3-0.3,0.7,0,1c0.1,0.1,0.2,0.1,0.2,0.2l1.6,0.5L309.8,127.8z"/>
<path class="st1" d="M333.1,142.4c4.6,3.5,11.5,11.3,11.4,26l-18.9,1.2c0,0-5.5-16.1,0.2-25.8c1.4-2.3,4.4-3.1,6.7-1.8
	C332.8,142.1,332.9,142.2,333.1,142.4z"/>
<path class="st11" d="M333.1,142.4c4.6,3.5,11.5,11.3,11.4,26l-18.9,1.2c0,0-5.5-16.1,0.2-25.8c1.4-2.3,4.4-3.1,6.7-1.8
	C332.8,142.1,332.9,142.2,333.1,142.4z"/>
<rect x="147.6" y="71.4" class="st17" width="28.4" height="4.5"/>
<rect x="147.6" y="66.9" class="st3" width="21.5" height="4.5"/>
<path class="st18" d="M150,65.8c0,0,7.9-2.2,9.7-9.6c0,0-12.3-2.5-12.7,10.2L150,65.8z"/>
<path class="st19" d="M149,65c0,0,5.5-8.8,0.7-17c0,0-9.4,5.9-5.2,17L149,65z"/>
<path class="st1" d="M147.6,65.1c0,0-2.9-9.3-11.8-11c0,0-1.7,6,5.7,11L147.6,65.1z"/>
<polygon class="st4" points="153.4,64.8 151.8,75.9 141.6,75.9 140.1,64.9 "/>
</svg>
